HIERARCHY
ROOT Hips
{
	OFFSET 0.000000 83.214638 0.000000
	CHANNELS 6 Xposition Yposition Zposition Xrotation Yrotation Zrotation
	JOINT Pelvis
	{
		OFFSET 0.000000 0.000000 0.000000
		CHANNELS 3 Xrotation Yrotation Zrotation
		JOINT LeftUpLeg
		{
			OFFSET 8.479700 -4.795502 -0.379100
			CHANNELS 3 Xrotation Yrotation Zrotation
			JOINT LeftLeg
			{
				OFFSET 0.024144 -32.555107 0.112900
				CHANNELS 3 Xrotation Yrotation Zrotation
				JOINT LeftFoot
				{
					OFFSET -0.024144 -32.638630 -3.012600
					CHANNELS 3 Xrotation Yrotation Zrotation
					JOINT LeftToeBase
					{
						OFFSET 0.970200 -13.225400 11.864200
						CHANNELS 3 Xrotation Yrotation Zrotation
						End Site
						{
							OFFSET 0.000000 12.319262 0.000000
						}
					}
					JOINT LFootTongue
					{
						OFFSET 1.142400 -1.059800 6.665200
						CHANNELS 3 Xrotation Yrotation Zrotation
						End Site
						{
							OFFSET 0.000000 12.319262 0.000000
						}
					}
				}
				JOINT LeftPantLeg
				{
					OFFSET 0.918482 -16.533964 -2.284700
					CHANNELS 3 Xrotation Yrotation Zrotation
					End Site
					{
						OFFSET 0.350399 24.744368 0.000000
					}
				}
			}
		}
		JOINT RightUpLeg
		{
			OFFSET -8.479700 -4.795502 -0.379100
			CHANNELS 3 Xrotation Yrotation Zrotation
			JOINT RightLeg
			{
				OFFSET -0.023144 -32.555092 0.112900
				CHANNELS 3 Xrotation Yrotation Zrotation
				JOINT RightFoot
				{
					OFFSET 0.023144 -32.638641 -3.012700
					CHANNELS 3 Xrotation Yrotation Zrotation
					JOINT RightToeBase
					{
						OFFSET -0.970200 -13.225400 11.864200
						CHANNELS 3 Xrotation Yrotation Zrotation
						End Site
						{
							OFFSET 0.000000 12.319244 0.000000
						}
					}
					JOINT RFootTongue
					{
						OFFSET -1.142200 -1.059800 6.665200
						CHANNELS 3 Xrotation Yrotation Zrotation
						End Site
						{
							OFFSET 0.000000 12.319243 0.000000
						}
					}
				}
				JOINT RightPantLeg
				{
					OFFSET -0.919482 -16.533978 -2.284800
					CHANNELS 3 Xrotation Yrotation Zrotation
					End Site
					{
						OFFSET -0.350400 24.744419 0.000000
					}
				}
			}
		}
	}
	JOINT Spine
	{
		OFFSET 0.000000 7.722000 1.166200
		CHANNELS 3 Xrotation Yrotation Zrotation
		JOINT Spine1
		{
			OFFSET 0.000000 12.024101 0.248800
			CHANNELS 3 Xrotation Yrotation Zrotation
			JOINT Spine2
			{
				OFFSET 0.000000 11.502998 -0.491200
				CHANNELS 3 Xrotation Yrotation Zrotation
				JOINT Neck
				{
					OFFSET 0.000000 18.430702 -3.123100
					CHANNELS 3 Xrotation Yrotation Zrotation
					JOINT Head
					{
						OFFSET 0.000000 9.051102 1.034000
						CHANNELS 3 Xrotation Yrotation Zrotation
						JOINT HairB
						{
							OFFSET 0.208400 24.786102 24.822300
							CHANNELS 3 Xrotation Yrotation Zrotation
							End Site
							{
								OFFSET 0.000000 32.263779 0.000000
							}
						}
						JOINT HairA
						{
							OFFSET -7.081100 24.428299 23.196600
							CHANNELS 3 Xrotation Yrotation Zrotation
							End Site
							{
								OFFSET 0.000000 32.263779 0.000000
							}
						}
						JOINT Hat
						{
							OFFSET 16.728800 15.048294 -15.439601
							CHANNELS 3 Xrotation Yrotation Zrotation
							End Site
							{
								OFFSET 0.000000 32.263779 0.000000
							}
						}
					}
				}
				JOINT LeftShoulder
				{
					OFFSET 6.197800 13.665199 -4.064700
					CHANNELS 3 Xrotation Yrotation Zrotation
					JOINT LeftArm
					{
						OFFSET 7.778100 -0.187103 -1.709300
						CHANNELS 3 Xrotation Yrotation Zrotation
						JOINT LeftForeArm
						{
							OFFSET 22.049376 0.000000 0.000000
							CHANNELS 3 Xrotation Yrotation Zrotation
							JOINT LeftHand
							{
								OFFSET 23.009392 0.000000 0.000000
								CHANNELS 3 Xrotation Yrotation Zrotation
								JOINT LeftHandThumb1
								{
									OFFSET 3.507191 -2.063065 3.133727
									CHANNELS 3 Xrotation Yrotation Zrotation
									JOINT LeftHandThumb2
									{
										OFFSET 3.101337 -1.790558 1.790558
										CHANNELS 3 Xrotation Yrotation Zrotation
										JOINT LeftHandThumb3
										{
											OFFSET 3.058640 -1.765907 1.765906
											CHANNELS 3 Xrotation Yrotation Zrotation
											End Site
											{
												OFFSET -0.415260 3.926476 -0.049563
											}
										}
									}
								}
								JOINT LeftHandIndex1
								{
									OFFSET 11.334419 -0.901459 3.706815
									CHANNELS 3 Xrotation Yrotation Zrotation
									JOINT LeftHandIndex2
									{
										OFFSET 3.283112 0.000000 0.000000
										CHANNELS 3 Xrotation Yrotation Zrotation
										JOINT LeftHandIndex3
										{
											OFFSET 3.323853 0.000000 0.000000
											CHANNELS 3 Xrotation Yrotation Zrotation
											End Site
											{
												OFFSET -1.135597 3.097809 0.402452
											}
										}
									}
								}
								JOINT LeftHandMiddle1
								{
									OFFSET 11.335861 0.000000 0.000000
									CHANNELS 3 Xrotation Yrotation Zrotation
									JOINT LeftHandMiddle2
									{
										OFFSET 3.410492 0.000000 0.000000
										CHANNELS 3 Xrotation Yrotation Zrotation
										JOINT LeftHandMiddle3
										{
											OFFSET 3.312172 0.000000 0.000000
											CHANNELS 3 Xrotation Yrotation Zrotation
											End Site
											{
												OFFSET -1.150200 3.080154 0.400270
											}
										}
									}
								}
								JOINT LeftHandRing1
								{
									OFFSET 11.514786 -0.013176 -3.003090
									CHANNELS 3 Xrotation Yrotation Zrotation
									JOINT LeftHandRing2
									{
										OFFSET 3.053307 0.000000 0.000000
										CHANNELS 3 Xrotation Yrotation Zrotation
										JOINT LeftHandRing3
										{
											OFFSET 3.295807 0.000000 0.000000
											CHANNELS 3 Xrotation Yrotation Zrotation
											End Site
											{
												OFFSET -1.281006 3.013344 0.375733
											}
										}
									}
								}
								JOINT LeftHandPinky1
								{
									OFFSET 10.518692 -0.960396 -5.730441
									CHANNELS 3 Xrotation Yrotation Zrotation
									JOINT LeftHandPinky2
									{
										OFFSET 2.861649 0.000000 0.000000
										CHANNELS 3 Xrotation Yrotation Zrotation
										JOINT LeftHandPinky3
										{
											OFFSET 2.863380 0.000000 0.000000
											CHANNELS 3 Xrotation Yrotation Zrotation
											End Site
											{
												OFFSET -0.843597 2.711159 0.369971
											}
										}
									}
								}
							}
							JOINT LSleeve
							{
								OFFSET 6.676277 -0.344902 -1.011730
								CHANNELS 3 Xrotation Yrotation Zrotation
								End Site
								{
									OFFSET 0.000000 14.885353 0.000000
								}
							}
						}
					}
				}
				JOINT RightShoulder
				{
					OFFSET -6.197800 13.665199 -4.064700
					CHANNELS 3 Xrotation Yrotation Zrotation
					JOINT RightArm
					{
						OFFSET -7.778100 -0.187103 -1.709300
						CHANNELS 3 Xrotation Yrotation Zrotation
						JOINT RightForeArm
						{
							OFFSET -22.049376 0.000000 0.000000
							CHANNELS 3 Xrotation Yrotation Zrotation
							JOINT RightHand
							{
								OFFSET -23.009392 0.000000 0.000000
								CHANNELS 3 Xrotation Yrotation Zrotation
								JOINT RightHandThumb1
								{
									OFFSET -3.507191 -2.063065 3.133727
									CHANNELS 3 Xrotation Yrotation Zrotation
									JOINT RightHandThumb2
									{
										OFFSET -3.101337 -1.790558 1.790558
										CHANNELS 3 Xrotation Yrotation Zrotation
										JOINT RightHandThumb3
										{
											OFFSET -3.058640 -1.765907 1.765906
											CHANNELS 3 Xrotation Yrotation Zrotation
											End Site
											{
												OFFSET 0.415260 3.926476 -0.049563
											}
										}
									}
								}
								JOINT RightHandIndex1
								{
									OFFSET -11.334419 -0.901459 3.706815
									CHANNELS 3 Xrotation Yrotation Zrotation
									JOINT RightHandIndex2
									{
										OFFSET -3.283112 0.000000 0.000000
										CHANNELS 3 Xrotation Yrotation Zrotation
										JOINT RightHandIndex3
										{
											OFFSET -3.323853 0.000000 0.000000
											CHANNELS 3 Xrotation Yrotation Zrotation
											End Site
											{
												OFFSET 1.135597 3.097809 0.402452
											}
										}
									}
								}
								JOINT RightHandMiddle1
								{
									OFFSET -11.335861 0.000000 0.000000
									CHANNELS 3 Xrotation Yrotation Zrotation
									JOINT RightHandMiddle2
									{
										OFFSET -3.410492 0.000000 0.000000
										CHANNELS 3 Xrotation Yrotation Zrotation
										JOINT RightHandMiddle3
										{
											OFFSET -3.312172 0.000000 0.000000
											CHANNELS 3 Xrotation Yrotation Zrotation
											End Site
											{
												OFFSET 1.150200 3.080154 0.400270
											}
										}
									}
								}
								JOINT RightHandRing1
								{
									OFFSET -11.514786 -0.013176 -3.003090
									CHANNELS 3 Xrotation Yrotation Zrotation
									JOINT RightHandRing2
									{
										OFFSET -3.053307 0.000000 0.000000
										CHANNELS 3 Xrotation Yrotation Zrotation
										JOINT RightHandRing3
										{
											OFFSET -3.295807 0.000000 0.000000
											CHANNELS 3 Xrotation Yrotation Zrotation
											End Site
											{
												OFFSET 1.281006 3.013344 0.375733
											}
										}
									}
								}
								JOINT RightHandPinky1
								{
									OFFSET -10.518692 -0.960396 -5.730441
									CHANNELS 3 Xrotation Yrotation Zrotation
									JOINT RightHandPinky2
									{
										OFFSET -2.861649 0.000000 0.000000
										CHANNELS 3 Xrotation Yrotation Zrotation
										JOINT RightHandPinky3
										{
											OFFSET -2.863380 0.000000 0.000000
											CHANNELS 3 Xrotation Yrotation Zrotation
											End Site
											{
												OFFSET 0.843597 2.711159 0.369971
											}
										}
									}
								}
							}
							JOINT RSleeve
							{
								OFFSET -6.676277 -0.344902 -1.011730
								CHANNELS 3 Xrotation Yrotation Zrotation
								End Site
								{
									OFFSET 0.000000 14.885353 0.000000
								}
							}
						}
					}
				}
				JOINT Backpack
				{
					OFFSET 0.000000 -2.471497 36.677502
					CHANNELS 3 Xrotation Yrotation Zrotation
					End Site
					{
						OFFSET 0.000000 20.427315 0.000000
					}
				}
				JOINT Hood
				{
					OFFSET 0.000000 18.754097 -10.431000
					CHANNELS 3 Xrotation Yrotation Zrotation
					JOINT Hood1
					{
						OFFSET 0.000000 -5.011002 -7.685901
						CHANNELS 3 Xrotation Yrotation Zrotation
						End Site
						{
							OFFSET 0.000000 9.175140 0.000000
						}
					}
				}
				JOINT LHoodieString
				{
					OFFSET 5.250500 16.397697 3.089900
					CHANNELS 3 Xrotation Yrotation Zrotation
					JOINT LHoodieString1
					{
						OFFSET 0.257700 -6.364304 3.694600
						CHANNELS 3 Xrotation Yrotation Zrotation
						JOINT LHoodieString2
						{
							OFFSET 0.000000 -9.643799 2.679100
							CHANNELS 3 Xrotation Yrotation Zrotation
							End Site
							{
								OFFSET 0.000000 10.009018 0.000000
							}
						}
					}
				}
				JOINT RHoodieString
				{
					OFFSET -5.250500 16.397697 3.089900
					CHANNELS 3 Xrotation Yrotation Zrotation
					JOINT RHoodieString1
					{
						OFFSET -0.257700 -6.364304 3.694600
						CHANNELS 3 Xrotation Yrotation Zrotation
						JOINT RHoodieString2
						{
							OFFSET 0.000000 -9.643799 2.679100
							CHANNELS 3 Xrotation Yrotation Zrotation
							End Site
							{
								OFFSET 0.000000 10.009018 0.000000
							}
						}
					}
				}
			}
			JOINT LBackpack_Strap
			{
				OFFSET 15.223200 -7.719803 -6.610900
				CHANNELS 3 Xrotation Yrotation Zrotation
				End Site
				{
					OFFSET 0.000000 16.040596 0.000000
				}
			}
			JOINT RBackpack_Strap
			{
				OFFSET -15.223000 -7.719803 -6.610900
				CHANNELS 3 Xrotation Yrotation Zrotation
				End Site
				{
					OFFSET 0.000000 16.040596 0.000000
				}
			}
		}
	}
	JOINT BoyFacialAnim_Joint
	{
		OFFSET 1.000000 -82.208099 -1.550900
		CHANNELS 3 Xrotation Yrotation Zrotation
		End Site
		{
			OFFSET 0.000000 30.012791 0.000000
		}
	}
}
MOTION
Frames: 4
Frame Time: 0.033333
-2.023242 78.029587 9.937565 -1.496009 6.168260 3.027872 -0.000000 -0.000000 -0.000000 -22.637236 -6.363555 9.919077 26.183122 -0.192912 -0.974560 -2.509636 -2.909936 -13.546946 0.000000 -0.000000 0.000000 0.000000 -0.000000 0.000000 0.000000 0.000000 0.000000 -20.543821 -12.541519 -19.504199 39.525352 0.301054 1.446323 -16.978249 -8.188589 9.371983 0.000000 -0.000002 -0.000000 0.000000 -0.000002 -0.000000 -0.000001 -0.000000 -0.000000 5.550229 0.033800 -0.529866 11.100324 0.009740 -0.734989 11.100323 0.009740 -0.734989 -10.509795 -1.525005 -3.378780 -17.396610 -3.946746 2.467864 0.000000 0.000000 -0.000000 0.000000 0.000000 -0.000000 0.000000 0.000000 -0.000000 9.458448 -6.444343 -14.996462 -9.688682 10.601558 -35.774499 0.001811 -55.255947 0.168438 23.869194 -12.509994 16.445987 7.350843 -14.484222 -10.934849 -1.067062 0.182866 1.946098 -0.000000 0.000001 0.000002 5.776111 -9.584546 -10.641324 0.033770 0.666543 -10.636466 -0.000000 -0.000002 -0.000005 1.641857 7.127209 -4.239652 -0.187947 -0.789349 -15.969022 0.000004 -0.000002 0.000003 1.677314 11.039965 -8.046056 -0.183066 -2.876898 -23.912168 0.000001 0.000000 -0.000004 0.734621 28.047554 -16.218784 -0.849531 -6.142166 -29.148249 -0.000003 -0.000000 -0.000002 0.000002 -0.000001 0.000001 -3.413134 0.044909 -0.357068 -8.521086 -11.378037 60.672611 -0.093801 56.128890 -0.117885 33.242295 -12.830444 -17.731922 -4.978393 12.391681 9.407274 -1.210151 -0.220453 -2.121004 -0.000000 -0.000003 -0.000002 10.258596 13.576580 6.067482 0.012527 -0.647902 4.076583 -0.000002 -0.000003 -0.000000 -1.738479 -1.670982 3.393798 -0.252701 0.798104 21.448269 -0.000000 0.000000 -0.000000 -0.824251 -13.700968 18.348852 -0.242214 2.213620 16.221202 -0.000002 -0.000000 0.000000 -4.380722 -23.900577 30.060325 -0.233915 5.125278 12.870283 -0.000002 -0.000001 0.000002 0.000001 0.000000 -0.000001 -0.000000 0.000000 -0.000000 -0.000000 0.000000 -0.000000 -0.000000 0.000000 -0.000000 -0.000000 0.000000 -0.000000 -0.000000 0.000000 -0.000000 -0.000000 0.000000 -0.000000 -0.000000 0.000000 -0.000000 -0.000000 0.000000 -0.000000 -0.000000 0.000000 -0.000000 -0.000002 -0.000000 -0.000000 -0.000002 -0.000000 -0.000000 -0.000000 -0.000000 -0.000000 
-2.023275 78.011360 9.934941 -1.506185 6.157346 3.027612 0.000000 -0.000001 -0.000000 -22.697535 -6.331038 9.933696 26.307985 -0.192655 -0.979049 -2.555430 -2.946183 -13.550105 -0.000000 0.000000 -0.000000 -0.000000 0.000000 0.000000 0.000000 0.000000 0.000001 -20.591945 -12.548999 -19.527473 39.611641 0.303335 1.449326 -17.007463 -8.150131 9.365583 -0.000000 0.000001 0.000000 -0.000000 0.000001 0.000000 -0.000001 -0.000001 -0.000002 5.545125 0.033215 -0.529609 11.090106 0.008283 -0.735687 11.090110 0.008282 -0.735686 -10.506087 -1.525609 -3.361216 -17.404183 -3.918490 2.472956 0.000000 0.000000 0.000000 0.000000 0.000000 0.000000 0.000000 0.000000 0.000000 9.458646 -6.435014 -14.995136 -9.676491 10.563953 -35.804828 0.001267 -55.171946 0.167672 23.855407 -12.510109 16.514426 7.492305 -14.267022 -10.989997 -1.062558 0.181478 1.941603 0.000002 -0.000000 0.000002 5.775268 -9.579531 -10.823528 0.035043 0.669638 -10.818818 -0.000000 0.000002 -0.000003 1.640378 7.110897 -4.421102 -0.191613 -0.803515 -16.150865 0.000002 -0.000001 -0.000000 1.674719 11.023959 -8.227216 -0.189420 -2.890911 -24.094179 -0.000002 -0.000002 0.000001 0.727771 28.023634 -16.395984 -0.859597 -6.160545 -29.330499 -0.000002 -0.000002 -0.000000 0.000000 0.000000 0.000002 -3.413962 0.048633 -0.362363 -8.511864 -11.375901 60.653446 -0.093569 56.144742 -0.117984 33.233713 -12.854441 -17.761465 -4.924780 12.329641 9.395548 -1.206410 -0.219414 -2.116670 0.000001 -0.000002 -0.000002 10.257814 13.572347 6.148413 0.012867 -0.650956 4.157624 -0.000002 -0.000000 -0.000002 -1.738723 -1.665941 3.474716 -0.254549 0.802787 21.529239 0.000003 0.000001 -0.000000 -0.826905 -13.691876 18.428708 -0.244649 2.221989 16.301913 0.000002 0.000000 0.000004 -4.387612 -23.887374 30.137103 -0.237096 5.138764 12.950512 -0.000000 -0.000001 -0.000002 -0.000001 0.000003 -0.000001 0.000000 -0.000000 0.000000 0.000000 -0.000000 0.000000 0.000000 -0.000000 0.000000 0.000000 -0.000000 0.000000 0.000000 -0.000000 0.000000 0.000000 -0.000000 0.000000 0.000000 -0.000000 0.000000 0.000000 -0.000000 0.000000 0.000000 -0.000000 0.000000 0.000001 0.000000 -0.000000 0.000001 0.000000 -0.000000 0.000000 -0.000001 -0.000000 
-2.022942 78.001457 9.931131 -1.506871 6.125878 3.028275 -0.000000 0.000000 -0.000000 -22.724960 -6.275160 9.955346 26.349622 -0.190593 -0.980466 -2.580749 -2.988052 -13.566259 0.000000 0.000000 -0.000000 0.000000 0.000000 -0.000000 0.000000 -0.000000 -0.000001 -20.632282 -12.541270 -19.539798 39.656775 0.304444 1.450856 -17.003812 -8.112641 9.359556 0.000000 0.000000 0.000000 0.000000 0.000000 0.000000 -0.000001 -0.000000 0.000000 5.539632 0.033228 -0.529610 11.079124 0.008318 -0.735895 11.079119 0.008319 -0.735896 -10.506440 -1.525934 -3.348305 -17.429922 -3.889660 2.459666 0.000000 0.000000 -0.000000 0.000000 0.000000 -0.000000 0.000000 0.000000 -0.000000 9.459061 -6.419922 -14.996300 -9.627780 10.536353 -35.823389 0.001471 -55.188465 0.167813 23.782732 -12.517652 16.541371 7.653381 -14.020048 -11.053802 -1.050402 0.177743 1.929588 0.000001 -0.000001 -0.000000 5.773363 -9.566114 -11.325414 0.038653 0.678096 -11.321093 -0.000000 0.000002 -0.000005 1.636079 7.066326 -4.920955 -0.201902 -0.842470 -16.651719 0.000000 -0.000001 0.000000 1.667406 10.980105 -8.726207 -0.207192 -2.929505 -24.595603 0.000001 -0.000001 -0.000001 0.708481 27.958754 -16.884094 -0.887599 -6.210963 -29.832504 0.000003 0.000002 -0.000002 0.000000 0.000001 0.000004 -3.413327 0.043775 -0.362881 -8.474863 -11.349881 60.638303 -0.092982 56.215592 -0.118446 33.192862 -12.869137 -17.778508 -4.772218 12.153028 9.362712 -1.195799 -0.216535 -2.104271 0.000001 0.000001 -0.000002 10.255709 13.560393 6.378875 0.013897 -0.659650 4.388354 -0.000002 0.000003 -0.000001 -1.739468 -1.651580 3.705139 -0.259797 0.816048 21.759762 0.000002 0.000004 -0.000001 -0.834550 -13.666027 18.656108 -0.251667 2.245773 16.531754 0.000000 0.000002 0.000004 -4.407379 -23.849914 30.355785 -0.246239 5.177100 13.178812 -0.000001 -0.000003 -0.000000 0.000002 0.000000 -0.000002 -0.000000 0.000000 0.000000 -0.000000 0.000000 0.000000 -0.000000 0.000000 0.000000 -0.000000 0.000000 0.000000 -0.000000 0.000000 0.000000 -0.000000 0.000000 0.000000 -0.000000 0.000000 0.000000 -0.000000 0.000000 0.000000 -0.000000 0.000000 0.000000 0.000001 0.000001 -0.000000 0.000001 0.000001 -0.000000 -0.000000 0.000000 -0.000000 
-2.024434 78.001503 9.922860 -1.501390 6.087283 3.040256 0.000000 -0.000000 0.000000 -22.718085 -6.232148 9.952546 26.320641 -0.191083 -0.979393 -2.591100 -2.980425 -13.536865 0.000000 0.000000 0.000000 0.000000 0.000000 0.000000 0.000000 0.000000 0.000001 -20.659473 -12.496138 -19.538731 39.659992 0.306836 1.450978 -16.950487 -8.104041 9.351725 0.000000 -0.000000 0.000000 0.000000 -0.000000 0.000000 0.000001 0.000000 0.000001 5.534879 0.032606 -0.532082 11.069610 0.007506 -0.738330 11.069607 0.007508 -0.738330 -10.515993 -1.523400 -3.346511 -17.462892 -3.863482 2.442176 -0.000000 -0.000000 0.000000 -0.000000 -0.000000 0.000000 -0.000000 -0.000000 0.000000 9.459452 -6.401190 -14.998030 -9.557062 10.501745 -35.827505 0.002288 -55.298339 0.168660 23.722741 -12.518330 16.561242 7.826700 -13.754675 -11.123668 -1.032596 0.172259 1.912191 0.000001 -0.000004 0.000005 5.771646 -9.547210 -12.079829 0.044263 0.690745 -12.076081 -0.000003 -0.000000 -0.000005 1.629097 7.000265 -5.672330 -0.217972 -0.900847 -17.404592 0.000006 -0.000001 0.000002 1.655887 10.914734 -9.476209 -0.234476 -2.987295 -25.349407 -0.000002 -0.000002 -0.000002 0.678364 27.863723 -17.617775 -0.930509 -6.286309 -30.587284 -0.000001 0.000000 0.000003 0.000001 0.000000 0.000000 -3.412010 0.025274 -0.374259 -8.388398 -11.289531 60.646957 -0.092197 56.332719 -0.119279 33.119089 -12.885040 -17.776740 -4.533196 11.876017 9.312857 -1.179266 -0.212080 -2.084761 0.000000 -0.000001 0.000000 10.252878 13.542004 6.740287 0.015574 -0.673257 4.750233 -0.000002 -0.000001 0.000005 -1.740767 -1.629083 4.066514 -0.268158 0.836832 22.121296 0.000003 -0.000003 -0.000001 -0.846839 -13.625779 19.012706 -0.262858 2.283058 16.892219 -0.000001 0.000000 0.000004 -4.438922 -23.791741 30.698613 -0.260876 5.237143 13.536938 -0.000002 0.000001 -0.000001 -0.000001 -0.000001 0.000001 0.000000 -0.000000 0.000000 0.000000 -0.000000 0.000000 0.000000 -0.000000 0.000000 0.000000 -0.000000 0.000000 0.000000 -0.000000 0.000000 0.000000 -0.000000 0.000000 0.000000 -0.000000 0.000000 0.000000 -0.000000 0.000000 0.000000 -0.000000 0.000000 -0.000000 0.000000 0.000000 -0.000000 0.000000 0.000000 0.000000 -0.000000 0.000000 
